<?xml version="1.0" encoding="utf-8"?>
<!-- Generator: Adobe Illustrator 21.0.2, SVG Export Plug-In . SVG Version: 6.00 Build 0)  -->
<svg version="1.1" id="Layer_1" xmlns="http://www.w3.org/2000/svg" xmlns:xlink="http://www.w3.org/1999/xlink" x="0px" y="0px"
	 viewBox="0 0 45 41" style="enable-background:new 0 0 45 41;" xml:space="preserve">
<style type="text/css">
	.st0{clip-path:url(#SVGID_2_);fill:#ED4F33;}
</style>
<g>
	<g>
		<g>
			<defs>
				<rect id="SVGID_1_" x="5.5" width="33.7" height="40.8"/>
			</defs>
			<clipPath id="SVGID_2_">
				<use xlink:href="#SVGID_1_"  style="overflow:visible;"/>
			</clipPath>
			<path class="st0" d="M21.1,0l2.7,1.4L5.5,11.9c0,0,0,16.1,0,17.6s0.8,2.2,1.4,2.6c0.6,0.4,15.4,8.8,15.4,8.8s13.8-8,15.2-8.7
				c1.3-0.7,1.7-1.8,1.7-2.9c0-0.4,0.1-14.4,0-15.6s-0.6-2-1.6-2.6s-4.1-2.4-5.2-2.9c-1-0.6-1.6-0.6-2.4-0.2
				c-0.7,0.4-1.3,0.8-1.9,1.1s-1.2,1,0.2,1.7c0.3,0.2,1.7,1,2.9,1.6c1.1,0.7,0.8,1.3,0,1.7c-0.3,0.2-5.7,3.3-7,3.9
				c-1.3,0.8-2.2,1-3.5,0.4c-0.2-0.1-6.7-3.9-7.6-4.3c-0.8-0.5-0.8-1.1,0.1-1.6s15-8.5,15-8.5l2,1.1V0H21.1z M34.9,18.8V27
				c0,1.2-0.5,1.9-1.6,2.5S27,33.1,26,33.7s-1.4-0.1-1.4-0.7v-8.5c0-1.5,1.4-2.4,1.4-2.4s6.4-3.6,7.4-4.2
				C34.4,17.4,34.9,17.8,34.9,18.8 M11.3,18c1,0.6,7.4,4.2,7.4,4.2s1.4,0.8,1.4,2.4V33c0,0.6-0.4,1.3-1.4,0.7s-6.2-3.5-7.3-4.2
				c-1.1-0.6-1.6-1.4-1.6-2.5v-8.2C9.8,17.8,10.3,17.4,11.3,18"/>
		</g>
	</g>
</g>
</svg>
