<svg xmlns="http://www.w3.org/2000/svg" xmlns:xlink="http://www.w3.org/1999/xlink" viewBox="0 0 446.12 240.98"><defs><style>.cls-1{fill:none;}.cls-2{font-size:90px;font-family:HelveticaNeue, Helvetica Neue;letter-spacing:0em;}.cls-3{font-family:HelveticaNeue-Bold, Helvetica Neue;font-weight:700;letter-spacing:0em;}.cls-4{clip-path:url(#clip-path);}.cls-5{fill:#ed4f33;}</style><clipPath id="clip-path"><rect class="cls-1" x="179.41" width="86.73" height="105.01"/></clipPath></defs><title>Asset 1</title><g id="Layer_2" data-name="Layer 2"><g id="Layer_1-2" data-name="Layer 1"><text class="cls-2" transform="translate(0 197.69)">ministry <tspan class="cls-3" x="336.87" y="0">go</tspan></text><text/><g class="cls-4"><path class="cls-5" d="M219.56,0l6.95,3.6-47.1,27V75.92a7.46,7.46,0,0,0,3.6,6.7c1.54,1,39.64,22.64,39.64,22.64s35.51-20.58,39.12-22.39a7.93,7.93,0,0,0,4.37-7.46c0-1,.26-37.06,0-40.15A7.9,7.9,0,0,0,262,28.57c-2.57-1.55-10.55-6.18-13.38-7.47-2.57-1.54-4.12-1.54-6.18-.51-1.8,1-3.34,2.06-4.89,2.83s-3.08,2.57.52,4.38c.77.51,4.37,2.57,7.46,4.11,2.83,1.81,2.06,3.35,0,4.38-.77.51-14.67,8.49-18,10-3.35,2.06-5.67,2.57-9,1-.52-.26-17.25-10-19.56-11.07-2.06-1.29-2.06-2.83.26-4.12s38.6-21.88,38.6-21.88L243,13.13V0Zm35.51,48.39v21.1c0,3.09-1.28,4.89-4.11,6.43s-16.22,9.27-18.79,10.81-3.6-.25-3.6-1.8V63.06c0-3.86,3.6-6.18,3.6-6.18s16.47-9.27,19-10.81c2.58-1.29,3.86-.26,3.86,2.32m-60.73-2.06c2.57,1.54,19,10.81,19,10.81a7.58,7.58,0,0,1,3.6,6.17V84.93c0,1.55-1,3.35-3.6,1.8s-16-9-18.79-10.81c-2.83-1.54-4.12-3.6-4.12-6.43V48.39c0-2.58,1.29-3.61,3.87-2.06"/></g></g></g></svg>